PathFileType	4	(X/Y/Z)	AB09\squats_1.trc
DataRate	CameraRate	NumFrames	NumMarkers	Units	OrigDataRate	OrigDataStartFrame	OrigNumFrames
200.000000	200.000000	4	35	mm	200.000000	249	332
Frame#	Time	C7			LSHO			STRN			LASI			RASI			LPSI			RPSI			LGTR			RGTR			LTHC			LTHL			LTHR			LKNE			LMKNE			LSHC			LSHL			LSHR			LANK			LMANK			LMT1			LMT5			LCAL			RTHC			RTHL			RTHR			RKNE			RMKNE			RSHC			RSHL			RSHR			RANK			RMANK			RMT1			RMT5			RCAL			
		X1	Y1	Z1	X2	Y2	Z2	X3	Y3	Z3	X4	Y4	Z4	X5	Y5	Z5	X6	Y6	Z6	X7	Y7	Z7	X8	Y8	Z8	X9	Y9	Z9	X10	Y10	Z10	X11	Y11	Z11	X12	Y12	Z12	X13	Y13	Z13	X14	Y14	Z14	X15	Y15	Z15	X16	Y16	Z16	X17	Y17	Z17	X18	Y18	Z18	X19	Y19	Z19	X20	Y20	Z20	X21	Y21	Z21	X22	Y22	Z22	X23	Y23	Z23	X24	Y24	Z24	X25	Y25	Z25	X26	Y26	Z26	X27	Y27	Z27	X28	Y28	Z28	X29	Y29	Z29	X30	Y30	Z30	X31	Y31	Z31	X32	Y32	Z32	X33	Y33	Z33	X34	Y34	Z34	X35	Y35	Z35	

250	21.41	-3524.5775566189	1215.242354753888	2501.068089328464	-3592.161152929711	1167.809543956567	2660.988936789367	-3597.95564368969	917.8919119987903	2510.015481648413	-3335.11805152251	768.131623926967	2646.151268511538	-3364.43064031797	745.0515925973642	2363.588750432417	-3162.370267955515	811.2802969637128	2551.238360628318	-3170.683189320233	804.8282957197963	2416.639565175811	-3242.348971324465	717.1129429550042	2715.817455588048	-3278.733564525472	710.5393429262944	2275.045403820426	-3454.187482665074	621.0558339809538	2743.065581050088	-3543.634525830894	635.4377961583373	2652.2379487304	-3448.621026635823	463.7452215934635	2677.16078442741	-3601.888371909583	487.896335097592	2758.843684788472	-3613.497731829055	468.2264083456762	2621.850335548525	-3496.054147769777	409.8205655094454	2745.985242925009	-3623.678982460227	335.6673938196488	2704.218467235488	-3542.886208107989	276.5024240197387	2760.970262539819	-3437.181742698027	105.3082100500913	2738.355421155785	-3481.222020605279	115.1523685389656	2646.054056811948	-3584.856758939416	81.02549135549492	2687.752935398493	-3532.667339861142	56.55791724285606	2786.067127112515	-3360.652008592489	69.04229307246452	2670.23372484751	-3443.68577070886	467.7818709514824	2313.206228699347	-3474.944824420848	588.8590390215136	2244.201426198324	-3537.986690564326	645.5935216125526	2318.326415547026	-3587.373197911168	474.6158758413707	2241.141807661643	-3608.827947722891	471.2621029214815	2387.604729208339	-3530.675603894328	285.568586314846	2234.67045399286	-3495.901107015504	392.3306195499069	2261.210273662113	-3624.817039065599	332.3004871691887	2324.186645954735	-3439.224360011432	104.9977128247896	2282.615313894966	-3484.505049200188	112.696694016744	2378.843455020968	-3601.47997588084	69.00418412333603	2322.459273118067	-3547.27143096934	66.96936001071852	2218.866224452968	-3378.533129885183	67.2674901452049	2361.762225674119	
251	21.415	-3523.944566165009	1222.119372790497	2500.779156653754	-3591.663932252675	1174.805998221243	2660.833611161122	-3598.572735270169	925.0544577283223	2509.713175288511	-3336.663122297244	773.6067135046488	2646.115117407043	-3365.552911192354	750.2867707113518	2363.394298351927	-3163.821166583336	816.829964083819	2551.392659638153	-3171.943259378705	810.2810634740322	2416.720333383558	-3244.118135032958	721.9284338668946	2715.517482487751	-3279.874115824318	715.0376550669719	2275.282870596402	-3455.104078703478	623.3991295931102	2743.068252428051	-3544.716013284728	636.9994852435574	2652.338605877343	-3447.827427286697	466.0789928466553	2676.826870821668	-3601.267494147238	488.5915215616205	2758.430510936395	-3612.712078986249	468.9894640021879	2621.567839544819	-3495.414071015692	410.2049744948293	2745.85382574187	-3623.037900304595	336.2403923437588	2703.954153042883	-3542.508998109791	276.8854666966134	2760.876082032963	-3437.239194667825	105.3091805067633	2738.436205897521	-3481.16758532641	115.1768093661923	2646.065415022279	-3584.866232042073	80.89816320869043	2687.686011728268	-3532.718761325692	56.53609706748391	2786.059325261005	-3360.648207647856	69.07134968835186	2670.271232227485	-3442.792854582483	470.4366898848472	2313.520747203384	-3475.137316902486	591.1401361183422	2244.186709619721	-3538.937332262497	647.3371913486361	2318.059462168789	-3586.416829267388	475.5464306983471	2241.340582226716	-3607.977459494295	472.2135321087849	2387.71156794281	-3530.036974091029	285.9387640698553	2234.688963566568	-3495.041008516818	392.7176111713458	2261.302670122896	-3623.997142597933	332.913838060754	2324.240458443649	-3439.176648726032	104.9883810359795	2282.55068164208	-3484.427946664512	112.7575195102534	2378.788798399914	-3601.498125204204	68.98501883656967	2322.465385657109	-3547.288940162334	66.92415368968334	2218.859846203378	-3378.546103395456	67.30912466372483	2361.711461371187	
252	21.42	-3523.294435799235	1229.011363978827	2500.485138845984	-3591.154359437072	1181.819230015801	2660.678987282749	-3599.203572416982	932.2440299880548	2509.406955510378	-3338.252754217446	779.0919444540518	2646.079811071717	-3366.719145182955	755.5450980259882	2363.198169156686	-3165.304002416854	822.356557828705	2551.55435115052	-3173.230752202039	815.7151053891612	2416.807913506912	-3245.939533218431	726.7288907120134	2715.207560678933	-3281.048274346984	719.5241957318211	2275.537860863313	-3456.031569838246	625.7323834703362	2743.06504381365	-3545.799150539382	638.5420092765896	2652.433245525014	-3447.039853154216	468.4224453537178	2676.492304185192	-3600.629654221635	489.296045629763	2758.010138979917	-3611.91913772514	469.7598051384011	2621.28249571802	-3494.756412745387	410.5934887840543	2745.717719414408	-3622.384096002291	336.828076156876	2703.690804402816	-3542.121909299519	277.2804577367374	2760.786242730944	-3437.303545293949	105.3125733517618	2738.521036389964	-3481.119076548128	115.200717649917	2646.077636588504	-3584.878107231514	80.76569303937843	2687.621387425046	-3532.773649296824	56.51116509852127	2786.055539244533	-3360.648141384983	69.10475799650585	2670.311215123482	-3441.907191027918	473.0908530517221	2313.843744305727	-3475.333545978234	593.4148722395732	2244.175104049727	-3539.885997903594	649.0665927281718	2317.793191871906	-3585.442819481702	476.4886904304469	2241.542228663918	-3607.118420369133	473.1759041226836	2387.823984892519	-3529.381484511615	286.3187285980182	2234.711229601715	-3494.158459181316	393.1092898994627	2261.404344864408	-3623.162230308404	333.5384760420808	2324.293790521485	-3439.130235316238	104.9812116750627	2282.48585863154	-3484.354499779995	112.8183267235006	2378.73501637188	-3601.509654303171	68.95368274964919	2322.468691378465	-3547.30610880732	66.87551351675994	2218.850588272594	-3378.563867559945	67.35606405388502	2361.664320450835	
253	21.425	-3522.627234452747	1235.915129856573	2500.186408165555	-3590.632866369519	1188.846280514056	2660.525623420344	-3599.84829642222	939.4578890896343	2509.097202413543	-3339.885796556536	784.5848402929253	2646.044759969205	-3367.929762993228	760.8257389244021	2363.001524725359	-3166.818576616195	827.8594256024501	2551.722638154987	-3174.546344750693	821.1303105296628	2416.901851763273	-3247.811558575394	731.5141609672405	2714.88857563864	-3282.257127021525	723.9990252463729	2275.809087476786	-3456.96794814125	628.055687537976	2743.054936757567	-3546.881441647799	640.0653335185872	2652.520602021561	-3446.256633342254	470.7758025040164	2676.156579383928	-3599.973508450923	490.0102963064548	2757.582381506106	-3611.117116365141	470.5371976685136	2620.993813981331	-3494.079199334831	410.9864676385138	2745.575261621121	-3621.716200510958	337.4308281206214	2703.428494308817	-3541.723444896166	277.6879656773168	2760.70053740543	-3437.373564202695	105.3189863226897	2738.609913081356	-3481.076238587082	115.2242923653284	2646.090854701518	-3584.892072701785	80.62888474760047	2687.559466030541	-3532.831798023685	56.48324437366008	2786.05602012241	-3360.651891774879	69.14251805640875	2670.354049651535	-3441.027123048601	475.7438099713165	2314.17552132927	-3475.533426060009	595.6831765061922	2244.167409500213	-3540.831919212685	650.7816259082194	2317.528209409665	-3584.450615314647	477.4424626461619	2241.747408471358	-3606.24947561151	474.1488534803728	2387.942275379317	-3528.708203813791	286.7089554988224	2234.737562672962	-3493.252280077281	393.5055981652412	2261.516897888946	-3622.312101961205	334.1742869095627	2324.346530820837	-3439.085185282395	104.9763518508624	2282.420668672504	-3484.284777994304	112.8789022939889	2378.681940957934	-3601.515038287136	68.91074805593517	2322.468737090903	-3547.322895270059	66.82332809177409	2218.838143678371	-3378.58606070173	67.40789465829791	2361.621301461771	
